Format                                   : MPEG-4
Format profile                           : Base Media
Codec ID                                 : isom
File size                                : 656 MiB
Duration                                 : 1h 31mn
Overall bit rate mode                    : Variable
Overall bit rate                         : 1 002 Kbps
Encoded date                             : UTC 2011-01-10 04:19:23
Tagged date                              : UTC 2011-01-10 04:19:23

Video
ID                                       : 1
Format                                   : AVC
Format/Info                              : Advanced Video Codec
Format profile                           : Baseline@L3.0
Format settings, CABAC                   : No
Format settings, ReFrames                : 1 frame
Codec ID                                 : avc1
Codec ID/Info                            : Advanced Video Coding
Duration                                 : 1h 31mn
Bit rate                                 : 883 Kbps
Maximum bit rate                         : 2 265 Kbps
Width                                    : 592 pixels
Height                                   : 352 pixels
Display aspect ratio                     : 1.682
Frame rate mode                          : Constant
Frame rate                               : 25.000 fps
Color space                              : YUV
Chroma subsampling                       : 4:2:0
Bit depth                                : 8 bits
Scan type                                : Progressive
Bits/(Pixel*Frame)                       : 0.169
Stream size                              : 572 MiB (87%)
Writing library                          : x264 core 65 r1077 e46f648
Encoding settings                        : cabac=0 / ref=1 / deblock=1:0:0 / 
Encoded date                             : UTC 2011-01-10 04:19:23
Tagged date                              : UTC 2011-01-10 04:19:55

Audio
ID                                       : 2
Format                                   : AAC
Format/Info                              : Advanced Audio Codec
Format profile                           : LC
Codec ID                                 : 40
Duration                                 : 1h 31mn
Bit rate mode                            : Variable
Bit rate                                 : 126 Kbps
Maximum bit rate                         : 248 Kbps
Channel(s)                               : 2 channels
Channel positions                        : Front: L R
Sampling rate                            : 44.1 KHz
Compression mode                         : Lossy
Stream size                              : 82.3 MiB (13%)
Encoded date                             : UTC 2011-01-10 04:19:36
Tagged date                              : UTC 2011-01-10 04:19:55
